<svg width="56" height="56" viewBox="0 0 56 56" fill="none" xmlns="http://www.w3.org/2000/svg">
<circle cx="28" cy="28" r="28" fill="#2558CB"/>
<path fill-rule="evenodd" clip-rule="evenodd" d="M28.0001 36C27.4478 36 27.0001 35.5523 27.0001 35V29H21C20.4477 29 20 28.5523 20 28C20 27.4477 20.4477 27 21 27H27.0001V21C27.0001 20.4477 27.4478 20 28.0001 20C28.5524 20 29.0001 20.4477 29.0001 21V27H35C35.5523 27 36 27.4477 36 28C36 28.5523 35.5523 29 35 29H29.0001V35C29.0001 35.5523 28.5524 36 28.0001 36Z" fill="white"/>
</svg>
