<svg width="11" height="12" viewBox="0 0 11 12" fill="" xmlns="http://www.w3.org/2000/svg">
<path class="icon" fill-rule="evenodd" clip-rule="evenodd" d="M0.295018 0.927037C-0.0521152 1.27417 -0.0521152 1.83698 0.295018 2.18412L4.06652 5.95562L0.295545 9.72659C-0.0515875 10.0737 -0.0515875 10.6365 0.295545 10.9837C0.642678 11.3308 1.20549 11.3308 1.55262 10.9837L5.3236 7.21269L9.09457 10.9837C9.4417 11.3308 10.0045 11.3308 10.3516 10.9837C10.6988 10.6365 10.6988 10.0737 10.3516 9.72659L6.58067 5.95562L10.3522 2.18412C10.6993 1.83698 10.6993 1.27417 10.3522 0.927037C10.005 0.579904 9.44223 0.579904 9.0951 0.927037L5.3236 4.69854L1.5521 0.927037C1.20496 0.579904 0.64215 0.579904 0.295018 0.927037Z" fill="#458E22"/>
</svg>
