<svg width="10" height="10" viewBox="0 0 10 10" fill="none" xmlns="http://www.w3.org/2000/svg">
<path fill-rule="evenodd" clip-rule="evenodd" d="M0.882958 0.56118C0.579216 0.864921 0.579216 1.35738 0.882957 1.66112L4.18302 4.96118L0.883413 8.26079C0.579672 8.56453 0.579672 9.05699 0.883413 9.36073C1.18715 9.66447 1.67962 9.66447 1.98336 9.36073L5.28296 6.06113L8.58256 9.36073C8.88631 9.66447 9.37877 9.66447 9.68251 9.36073C9.98625 9.05699 9.98625 8.56453 9.68251 8.26079L6.3829 4.96118L9.68296 1.66112C9.98671 1.35738 9.9867 0.864921 9.68296 0.56118C9.37922 0.257439 8.88676 0.257439 8.58302 0.56118L5.28296 3.86124L1.9829 0.56118C1.67916 0.257439 1.1867 0.257439 0.882958 0.56118Z" fill="white"/>
</svg>
