<svg width="36" height="36" viewBox="0 0 36 36" fill="none" xmlns="http://www.w3.org/2000/svg">
<path d="M33.8177 5.37017H24.4696V3.48066C24.4696 2.55753 24.1029 1.67221 23.4502 1.01946C22.7974 0.366711 21.9121 0 20.989 0H15.3204C14.3973 0 13.512 0.366711 12.8592 1.01946C12.2065 1.67221 11.8398 2.55753 11.8398 3.48066V5.37017H2.49171C2.09609 5.37017 1.71666 5.52733 1.43691 5.80708C1.15716 6.08683 1 6.46625 1 6.86188C1 7.25751 1.15716 7.63693 1.43691 7.91668C1.71666 8.19643 2.09609 8.35359 2.49171 8.35359H5.52486V30.5304C5.52486 31.981 6.10112 33.3722 7.12687 34.398C8.15263 35.4237 9.54384 36 10.9945 36H25.3149C26.7656 36 28.1568 35.4237 29.1825 34.398C30.2083 33.3722 30.7845 31.981 30.7845 30.5304V8.35359H33.8177C34.2133 8.35359 34.5927 8.19643 34.8725 7.91668C35.1522 7.63693 35.3094 7.25751 35.3094 6.86188C35.3094 6.46625 35.1522 6.08683 34.8725 5.80708C34.5927 5.52733 34.2133 5.37017 33.8177 5.37017ZM14.8232 3.48066C14.8232 3.34879 14.8756 3.22231 14.9688 3.12906C15.0621 3.03581 15.1886 2.98343 15.3204 2.98343H20.989C21.1208 2.98343 21.2473 3.03581 21.3406 3.12906C21.4338 3.22231 21.4862 3.34879 21.4862 3.48066V5.37017H14.8232V3.48066ZM27.7514 30.5801C27.7514 31.2395 27.4894 31.8719 27.0232 32.3381C26.5569 32.8044 25.9246 33.0663 25.2652 33.0663H10.9945C10.3351 33.0663 9.70273 32.8044 9.23647 32.3381C8.77022 31.8719 8.50829 31.2395 8.50829 30.5801V8.35359H27.8011L27.7514 30.5801Z" fill="#7C7F80"/>
<path d="M21.884 29.4365C22.2796 29.4365 22.659 29.2793 22.9388 28.9996C23.2185 28.7198 23.3757 28.3404 23.3757 27.9448V13.0773C23.3757 12.6817 23.2185 12.3023 22.9388 12.0225C22.659 11.7428 22.2796 11.5856 21.884 11.5856C21.4884 11.5856 21.1089 11.7428 20.8292 12.0225C20.5494 12.3023 20.3923 12.6817 20.3923 13.0773V27.9448C20.3923 28.3404 20.5494 28.7198 20.8292 28.9996C21.1089 29.2793 21.4884 29.4365 21.884 29.4365Z" fill="#7C7F80"/>
<path d="M14.4254 29.4365C14.821 29.4365 15.2005 29.2793 15.4802 28.9996C15.76 28.7198 15.9171 28.3404 15.9171 27.9448V13.0773C15.9171 12.6817 15.76 12.3023 15.4802 12.0225C15.2005 11.7428 14.821 11.5856 14.4254 11.5856C14.0298 11.5856 13.6504 11.7428 13.3706 12.0225C13.0909 12.3023 12.9337 12.6817 12.9337 13.0773V27.9448C12.9337 28.3404 13.0909 28.7198 13.3706 28.9996C13.6504 29.2793 14.0298 29.4365 14.4254 29.4365Z" fill="#7C7F80"/>
</svg>
