<svg width="36" height="36" viewBox="0 0 36 36" fill="none" xmlns="http://www.w3.org/2000/svg">
<path d="M35.5545 6.80811L29.1963 0.449875C28.5964 -0.149958 27.6367 -0.149958 27.0769 0.449875L2.60367 24.9231C2.40373 25.123 2.28376 25.363 2.20378 25.6029L0.0443814 34.1205C-0.0755852 34.6404 0.0443814 35.1602 0.44427 35.5601C0.724193 35.84 1.12408 36 1.52397 36C1.64394 36 1.7639 36 1.88387 35.96L10.3615 33.8006C10.6414 33.7206 10.8814 33.6007 11.0413 33.4007L35.5145 8.92752C36.1544 8.32769 36.1543 7.36795 35.5545 6.80811ZM9.24183 31.0014L3.60339 32.401L5.04299 26.7626L23.9177 7.88781L28.1166 12.0866L9.24183 31.0014ZM30.236 10.0072L25.9972 5.7684L28.1166 3.64899L32.3154 7.84782L30.236 10.0072Z" fill="#7C7F80"/>
</svg>
