<svg width="36" height="36" viewBox="0 0 36 36" fill="none" xmlns="http://www.w3.org/2000/svg">
<path d="M13.9976 0C21.7126 0 27.9951 6.2825 27.9951 13.9976C27.9951 17.3493 26.8196 20.4222 24.8457 22.8335L36 33.9879L33.9878 36L22.8335 24.8457C20.4222 26.8196 17.3493 27.9951 13.9976 27.9951C6.2825 27.9951 0 21.7126 0 13.9976C0 6.2825 6.2825 0 13.9976 0ZM13.9976 2.79951C7.79708 2.79951 2.79951 7.79708 2.79951 13.9976C2.79951 20.1981 7.79708 25.1956 13.9976 25.1956C20.1981 25.1956 25.1956 20.1981 25.1956 13.9976C25.1956 7.79708 20.1981 2.79951 13.9976 2.79951Z" fill="white"/>
</svg>
