<svg width="36" height="36" viewBox="0 0 36 36" fill="none" xmlns="http://www.w3.org/2000/svg">
<rect x="2" y="32" width="40" height="4" rx="2" transform="rotate(-45 2 32)" fill="#7C7F80"/>
<path d="M18.0001 30.8346C4.932 30.8346 0.299837 19.9359 0.108851 19.4724C-0.0362835 19.117 -0.0362835 18.718 0.108851 18.3621C0.300216 17.8987 4.93238 7 18.0001 7C31.0634 7 35.7005 17.8987 35.8903 18.3621C36.0366 18.7176 36.0366 19.1166 35.8903 19.4724C35.7008 19.9359 31.0637 30.8346 18.0001 30.8346ZM3.07368 18.923C4.12448 20.9867 8.37278 27.9156 18.0001 27.9156C27.6275 27.9156 31.8788 20.9791 32.9296 18.9173C31.8807 16.8589 27.6317 9.91898 18.0001 9.91898C8.44213 9.91898 4.12827 16.8896 3.07368 18.923Z" fill="#7C7F80"/>
<path d="M18.0001 24.548C14.8951 24.548 12.3695 22.0223 12.3695 18.9173C12.3695 15.8123 14.8951 13.2866 18.0001 13.2866C21.1056 13.2866 23.6312 15.8123 23.6312 18.9173C23.6312 22.0223 21.1056 24.548 18.0001 24.548ZM18.0001 16.2056C16.5045 16.2056 15.2884 17.4216 15.2884 18.9173C15.2884 20.413 16.5045 21.629 18.0001 21.629C19.4958 21.629 20.7122 20.413 20.7122 18.9173C20.7122 17.4216 19.4958 16.2056 18.0001 16.2056Z" fill="#7C7F80"/>
</svg>
