<svg width="12" height="12" viewBox="0 0 12 12" fill="none" xmlns="http://www.w3.org/2000/svg">
<path d="M0.751204 6C0.751204 6.20546 0.581059 6.3756 0.375602 6.3756C0.166934 6.3756 0 6.20546 0 6C0 4.3435 0.670947 2.8443 1.75602 1.75602C2.8443 0.670947 4.3435 0 6 0C6.99197 0 7.92937 0.24077 8.75441 0.670947C9.313 0.959872 9.82344 1.33547 10.2632 1.77849V0.94382C10.2632 0.738363 10.4302 0.568218 10.6388 0.568218C10.8443 0.568218 11.0112 0.738363 11.0112 0.94382V2.81862C11.0112 3.02729 10.8443 3.19422 10.6388 3.19422H8.76405C8.55538 3.19422 8.38844 3.02729 8.38844 2.81862C8.38844 2.61316 8.55538 2.44302 8.76405 2.44302H9.86196C9.44783 1.99358 8.95987 1.61798 8.41092 1.33547C7.69181 0.959872 6.86998 0.751204 6 0.751204C4.54896 0.751204 3.23596 1.33868 2.28892 2.28892C1.33868 3.23596 0.751204 4.54896 0.751204 6ZM1.73676 11.0562C1.73676 11.2616 1.56982 11.4286 1.36116 11.4286C1.1557 11.4286 0.985554 11.2616 0.985554 11.0562V9.16212L0.988764 9.15249V9.13323L0.991974 9.1236V9.11397L0.995185 9.10433V9.0947L0.998395 9.08507L1.00161 9.07865V9.06902L1.00803 9.04976L1.01124 9.04334L1.01445 9.03371L1.02087 9.02729L1.02729 9.00803L1.0305 9.00161L1.03692 8.99197L1.04013 8.98555L1.04655 8.97913L1.04976 8.9695L1.05618 8.96308L1.05939 8.95666L1.06581 8.94703L1.08507 8.92777L1.08828 8.92135L1.10754 8.90209L1.11717 8.89567L1.1236 8.88925L1.13002 8.88603L1.14286 8.87319L1.15249 8.86998L1.15891 8.86356L1.16533 8.86035L1.17496 8.85393L1.18138 8.85072L1.19101 8.84751L1.19743 8.84109L1.21669 8.83467L1.22311 8.83146L1.24238 8.82504L1.2488 8.82183L1.26806 8.81541H1.27769L1.28411 8.8122H1.29374L1.30337 8.80899H1.313L1.32263 8.80578H3.23596C3.44462 8.80578 3.61156 8.97271 3.61156 9.18138C3.61156 9.38684 3.44462 9.55377 3.23596 9.55377H2.13804C2.54896 10 3.03692 10.3756 3.57945 10.6581C4.30177 11.0369 5.12681 11.2488 6 11.2488C7.44783 11.2488 8.76084 10.6613 9.71108 9.71108C10.6613 8.76084 11.2488 7.44783 11.2488 6C11.2488 5.79133 11.4157 5.6244 11.6244 5.6244C11.8299 5.6244 12 5.79133 12 6C12 7.6565 11.3258 9.1557 10.2408 10.2408C9.1557 11.3258 7.6565 12 6 12C5.00161 12 4.061 11.756 3.23274 11.3226C2.67737 11.0337 2.17335 10.6613 1.73676 10.2183V11.0562Z" fill="white"/>
</svg>
