<svg width="160" height="160" viewBox="0 0 160 160" fill="none" xmlns="http://www.w3.org/2000/svg">
<path opacity="0.2" d="M62.2114 0C96.5006 0 124.423 27.9222 124.423 62.2114C124.423 77.1081 119.198 90.7655 110.425 101.482L160 151.057L151.057 160L101.482 110.425C90.7655 119.198 77.1081 124.423 62.2114 124.423C27.9222 124.423 0 96.5006 0 62.2114C0 27.9222 27.9222 0 62.2114 0ZM62.2114 12.4423C34.6537 12.4423 12.4423 34.6537 12.4423 62.2114C12.4423 89.7691 34.6537 111.981 62.2114 111.981C89.7691 111.981 111.981 89.7691 111.981 62.2114C111.981 34.6537 89.7691 12.4423 62.2114 12.4423Z" fill="white"/>
</svg>
