<svg width="16" height="16" viewBox="0 0 16 16" fill="none" xmlns="http://www.w3.org/2000/svg">
<path fill-rule="evenodd" clip-rule="evenodd" d="M7.99999 16C6.41774 16 4.87101 15.5308 3.55541 14.6518C2.23982 13.7727 1.21446 12.5233 0.608963 11.0615C0.00346255 9.59965 -0.154959 7.99113 0.153723 6.43928C0.462404 4.88743 1.22436 3.46197 2.34318 2.34315C3.462 1.22433 4.88744 0.462402 6.43928 0.15372C7.99113 -0.154962 9.59963 0.00347006 11.0614 0.608971C12.5232 1.21447 13.7727 2.23985 14.6518 3.55544C15.5308 4.87104 16 6.41775 16 8C16 10.1217 15.1571 12.1566 13.6568 13.6569C12.1565 15.1571 10.1217 16 7.99999 16ZM7.99999 1.33334C6.68145 1.33334 5.39255 1.72433 4.29622 2.45687C3.19989 3.18941 2.3454 4.23061 1.84082 5.44878C1.33623 6.66696 1.20419 8.00739 1.46142 9.3006C1.71866 10.5938 2.35362 11.7817 3.28597 12.7141C4.21832 13.6464 5.40617 14.2813 6.69938 14.5386C7.99258 14.7958 9.33301 14.6638 10.5512 14.1592C11.7694 13.6546 12.8106 12.8001 13.5431 11.7038C14.2757 10.6075 14.6667 9.31854 14.6667 8C14.6667 6.23189 13.9643 4.53619 12.714 3.28595C11.4638 2.03571 9.7681 1.33334 7.99999 1.33334ZM9.48665 10.4667L7.53336 8.50734C7.4653 8.44046 7.41225 8.35985 7.37776 8.27088C7.34328 8.18191 7.32812 8.08661 7.33333 7.99133V4.66667C7.33333 4.48986 7.40353 4.32029 7.52856 4.19526C7.65358 4.07024 7.82318 4 7.99999 4C8.17681 4 8.34641 4.07024 8.47143 4.19526C8.59645 4.32029 8.66666 4.48986 8.66666 4.66667V7.68734L10.4666 9.48734C10.5309 9.55168 10.582 9.62806 10.6168 9.71212C10.6516 9.79618 10.6695 9.88627 10.6694 9.97724C10.6694 10.0682 10.6514 10.1583 10.6165 10.2423C10.5817 10.3263 10.5307 10.4027 10.4663 10.467C10.402 10.5313 10.3256 10.5823 10.2415 10.6171C10.1575 10.6519 10.0674 10.6698 9.97639 10.6697C9.88542 10.6697 9.79537 10.6518 9.71134 10.6169C9.6273 10.5821 9.55095 10.531 9.48665 10.4667Z" fill="#A0A9B2"/>
</svg>
