<svg width="16" height="16" viewBox="0 0 16 16" fill="none" xmlns="http://www.w3.org/2000/svg">
<path fill-rule="evenodd" clip-rule="evenodd" d="M7.97538 2.75692C9.45231 2.75692 10.6338 3.93846 10.6338 5.41538C10.6338 6.84308 9.45231 8.02462 7.97538 8.02462C6.54769 8.02462 5.36615 6.84308 5.36615 5.41538C5.36615 3.93846 6.54769 2.75692 7.97538 2.75692Z" fill="#7C7F80"/>
<path fill-rule="evenodd" clip-rule="evenodd" d="M2.51077 11.4215C3.69231 13.3415 5.76 14.4738 7.97538 14.4738C10.24 14.4738 12.3077 13.3415 13.4892 11.4215C12.8985 10.24 11.6677 9.45231 10.3385 9.45231H5.66154C4.33231 9.45231 3.10154 10.24 2.51077 11.4215Z" fill="#7C7F80"/>
<path d="M7.97538 0C12.4062 0 16 3.59385 16 7.97538C16 12.4062 12.4062 16 7.97538 16C3.59385 16 0 12.4062 0 7.97538C0 3.59385 3.59385 0 7.97538 0ZM7.97538 0.984615C4.13538 0.984615 0.984615 4.13538 0.984615 7.97538C0.984615 11.8646 4.13538 15.0154 7.97538 15.0154C11.8646 15.0154 15.0154 11.8646 15.0154 7.97538C15.0154 4.13538 11.8646 0.984615 7.97538 0.984615Z" fill="#7C7F80"/>
</svg>
