<svg width="16" height="11" viewBox="0 0 16 11" fill="none" xmlns="http://www.w3.org/2000/svg">
<path d="M8.00006 10.5932C2.192 10.5932 0.133261 5.74928 0.0483781 5.54331C-0.016126 5.38533 -0.016126 5.20799 0.0483781 5.04984C0.133429 4.84387 2.19217 0 8.00006 0C13.8059 0 15.8669 4.84387 15.9512 5.04984C16.0163 5.20782 16.0163 5.38516 15.9512 5.54331C15.867 5.74928 13.8061 10.5932 8.00006 10.5932ZM1.36608 5.2991C1.8331 6.21631 3.72124 9.29583 8.00006 9.29583C12.2789 9.29583 14.1684 6.21294 14.6354 5.29658C14.1692 4.38173 12.2807 1.29732 8.00006 1.29732C3.75206 1.29732 1.83479 4.39537 1.36608 5.2991Z" fill="black"/>
<path d="M8.00006 7.7991C6.62005 7.7991 5.49754 6.67659 5.49754 5.29658C5.49754 3.91656 6.62005 2.79405 8.00006 2.79405C9.38025 2.79405 10.5028 3.91656 10.5028 5.29658C10.5028 6.67659 9.38025 7.7991 8.00006 7.7991ZM8.00006 4.09138C7.33532 4.09138 6.79487 4.63183 6.79487 5.29658C6.79487 5.96132 7.33532 6.50177 8.00006 6.50177C8.66481 6.50177 9.20543 5.96132 9.20543 5.29658C9.20543 4.63183 8.66481 4.09138 8.00006 4.09138Z" fill="black"/>
</svg>
