<svg width="24" height="24" viewBox="0 0 24 24" fill="none" xmlns="http://www.w3.org/2000/svg">
<g clip-path="url(#clip0)">
<path d="M22.3084 23.5875C23.0146 23.5875 23.5873 23.0148 23.5873 22.3083V1.69166C23.5873 0.985138 23.0147 0.412598 22.3084 0.412598H1.69172C0.985199 0.412598 0.412659 0.985138 0.412659 1.69166V22.3083C0.412659 23.0147 0.985109 23.5875 1.69172 23.5875H22.3084Z" fill="#3C5A99"/>
<path d="M16.4026 23.5874V14.6128H19.4149L19.8659 11.1153H16.4026V8.88231C16.4026 7.86969 16.6838 7.17962 18.1358 7.17962L19.9879 7.17881V4.05057C19.6676 4.00795 18.5682 3.91272 17.2891 3.91272C14.6189 3.91272 12.7907 5.54266 12.7907 8.53593V11.1153H9.77066V14.6128H12.7907V23.5874H16.4026Z" fill="white"/>
</g>
<defs>
<clipPath id="clip0">
<rect width="23.9998" height="24" fill="white"/>
</clipPath>
</defs>
</svg>
