<svg width="24" height="24" viewBox="0 0 24 24" fill="none" xmlns="http://www.w3.org/2000/svg">
<path fill-rule="evenodd" clip-rule="evenodd" d="M12 0C5.373 0 0 5.373 0 12C0 18.627 5.373 24 12 24C18.627 24 24 18.627 24 12C24 5.373 18.627 0 12 0ZM12 2C17.514 2 22 6.486 22 12C22 17.514 17.514 22 12 22C6.486 22 2 17.514 2 12C2 6.486 6.486 2 12 2ZM12 6.5C8.686 6.5 6 8.987 6 12.056C6 13.804 6.872 15.363 8.236 16.382V18.5L10.279 17.379C10.824 17.53 11.402 17.611 12 17.611C15.314 17.611 18 15.124 18 12.056C18 8.987 15.314 6.5 12 6.5ZM12.596 13.981L11.068 12.352L8.087 13.981L11.366 10.5L12.932 12.13L15.876 10.5L12.596 13.981Z" fill="#448AFF"/>
</svg>
