<svg width="24" height="24" viewBox="0 0 24 24" fill="none" xmlns="http://www.w3.org/2000/svg">
<g clip-path="url(#clip0)">
<path d="M23 20.488C23 21.8802 21.8785 23 20.5058 23H3.4941C2.12145 23 1 21.8802 1 20.488V3.51202C1 2.11983 2.1215 1 3.4941 1H20.5058C21.8785 1 23 2.1199 23 3.51202V20.488Z" stroke="#F7931E" stroke-width="2"/>
<path d="M11.9864 3.58691C9.60777 3.58691 7.67959 5.52504 7.67959 7.91577C7.67959 10.3066 9.60777 12.2448 11.9864 12.2448C14.3649 12.2448 16.2931 10.3066 16.2931 7.91577C16.2931 5.52504 14.3649 3.58691 11.9864 3.58691ZM11.9864 9.70534C11.0031 9.70534 10.206 8.9041 10.206 7.91583C10.206 6.92756 11.0031 6.12638 11.9864 6.12638C12.9696 6.12638 13.7667 6.92756 13.7667 7.91583C13.7667 8.9041 12.9696 9.70534 11.9864 9.70534Z" fill="#F7931E"/>
<path d="M13.5069 15.6893C15.231 15.3362 16.2643 14.5155 16.3189 14.4715C16.8234 14.0648 16.9045 13.324 16.4999 12.8168C16.0953 12.3097 15.3584 12.2283 14.8537 12.6349C14.8431 12.6436 13.7411 13.4933 11.9279 13.4945C10.1148 13.4933 8.98951 12.6436 8.97885 12.6349C8.4742 12.2283 7.73726 12.3097 7.3327 12.8168C6.92808 13.324 7.00913 14.0648 7.51366 14.4715C7.56906 14.5162 8.64492 15.3582 10.4174 15.703L7.94712 18.2979C7.49819 18.7658 7.51168 19.511 7.97726 19.9622C8.2045 20.1824 8.49737 20.2919 8.79001 20.2919C9.09681 20.2919 9.40331 20.1714 9.63308 19.9318L11.928 17.4746L14.4547 19.9478C14.9125 20.4072 15.6538 20.4064 16.1107 19.9465C16.5677 19.4864 16.5671 18.7412 16.1094 18.2819L13.5069 15.6893Z" fill="#F7931E"/>
</g>
<defs>
<clipPath id="clip0">
<rect width="24" height="24" fill="white"/>
</clipPath>
</defs>
</svg>
