<svg width="24" height="24" viewBox="0 0 24 24" fill="none" xmlns="http://www.w3.org/2000/svg">
<path d="M12 2.163C15.204 2.163 15.584 2.175 16.85 2.233C20.102 2.381 21.621 3.924 21.769 7.152C21.827 8.417 21.838 8.797 21.838 12.001C21.838 15.206 21.826 15.585 21.769 16.85C21.62 20.075 20.105 21.621 16.85 21.769C15.584 21.827 15.206 21.839 12 21.839C8.796 21.839 8.416 21.827 7.151 21.769C3.891 21.62 2.38 20.07 2.232 16.849C2.174 15.584 2.162 15.205 2.162 12C2.162 8.796 2.175 8.417 2.232 7.151C2.381 3.924 3.896 2.38 7.151 2.232C8.417 2.175 8.796 2.163 12 2.163ZM12 0C8.741 0 8.333 0.014 7.053 0.072C2.695 0.272 0.273 2.69 0.073 7.052C0.014 8.333 0 8.741 0 12C0 15.259 0.014 15.668 0.072 16.948C0.272 21.306 2.69 23.728 7.052 23.928C8.333 23.986 8.741 24 12 24C15.259 24 15.668 23.986 16.948 23.928C21.302 23.728 23.73 21.31 23.927 16.948C23.986 15.668 24 15.259 24 12C24 8.741 23.986 8.333 23.928 7.053C23.732 2.699 21.311 0.273 16.949 0.073C15.668 0.014 15.259 0 12 0Z" fill="#7F40BD"/>
<path d="M16.7923 10.8749C16.8091 8.90109 15.128 7.09162 13.0448 6.8414C13.0034 6.83648 12.9583 6.82901 12.9105 6.82108C12.8073 6.80399 12.7007 6.78644 12.5931 6.78644C12.1662 6.78644 12.052 7.08634 12.022 7.26523C11.9927 7.43913 12.0206 7.58517 12.1047 7.6995C12.2461 7.89175 12.4948 7.92588 12.6947 7.95325C12.7532 7.96134 12.8085 7.96886 12.8548 7.97925C14.7264 8.39747 15.3566 9.05498 15.6646 10.9107C15.6721 10.9561 15.6755 11.0119 15.6791 11.0712C15.6926 11.293 15.7206 11.7545 16.2167 11.7545H16.2168C16.2581 11.7545 16.3025 11.751 16.3487 11.7439C16.8108 11.6737 16.7963 11.2519 16.7893 11.0492C16.7874 10.9921 16.7855 10.9381 16.7903 10.9022C16.7916 10.8931 16.7923 10.884 16.7923 10.8749Z" fill="#7F40BD"/>
<path d="M12.4724 6.11688C12.5278 6.12087 12.5803 6.1247 12.624 6.1314C15.6974 6.60406 17.1108 8.06023 17.5025 11.1577C17.5092 11.2104 17.5102 11.2746 17.5113 11.3426C17.5152 11.5846 17.5233 12.088 18.0639 12.0984L18.0807 12.0986C18.2503 12.0986 18.3852 12.0475 18.4816 11.9465C18.6499 11.7705 18.6382 11.5089 18.6287 11.2988C18.6264 11.2472 18.6242 11.1986 18.6247 11.1561C18.6638 7.9882 15.9217 5.11555 12.7566 5.00875C12.7435 5.00831 12.7309 5.00902 12.7183 5.0108C12.7121 5.0117 12.7005 5.01285 12.6808 5.01285C12.6492 5.01285 12.6104 5.01012 12.5692 5.00733C12.5194 5.00391 12.463 5 12.4058 5C11.9017 5 11.8059 5.35826 11.7937 5.57181C11.7654 6.06539 12.2429 6.10012 12.4724 6.11688Z" fill="#7F40BD"/>
<path d="M17.3539 15.161C17.2886 15.1111 17.221 15.0594 17.1578 15.0084C16.8222 14.7384 16.4652 14.4895 16.12 14.2487C16.0483 14.1988 15.9766 14.1489 15.9052 14.0988C15.463 13.7881 15.0654 13.6372 14.6897 13.6372C14.1838 13.6372 13.7427 13.9167 13.3786 14.468C13.2173 14.7124 13.0216 14.8312 12.7804 14.8312C12.6378 14.8312 12.4757 14.7905 12.2988 14.7102C10.8713 14.0629 9.85196 13.0703 9.26907 11.7602C8.98729 11.127 9.07865 10.7131 9.57455 10.3762C9.85617 10.1851 10.3803 9.82923 10.3432 9.14786C10.3012 8.37408 8.59387 6.04585 7.87451 5.78144C7.56996 5.66944 7.24996 5.6684 6.9217 5.77884C6.09471 6.05684 5.50127 6.54506 5.20536 7.19062C4.9194 7.81441 4.9323 8.54684 5.24271 9.30875C6.14002 11.5116 7.40158 13.4322 8.99249 15.0171C10.5497 16.5686 12.4637 17.8395 14.6811 18.7943C14.881 18.8803 15.0907 18.9272 15.2437 18.9614C15.2959 18.9732 15.3409 18.9832 15.3738 18.9922C15.3918 18.9971 15.4104 18.9997 15.4291 18.9999L15.4466 19C15.4467 19 15.4466 19 15.4467 19C16.4896 19 17.742 18.0469 18.1266 16.9604C18.4635 16.009 17.8483 15.5388 17.3539 15.161Z" fill="#7F40BD"/>
<path d="M12.9333 8.63319C12.7548 8.6377 12.3832 8.64692 12.2528 9.02541C12.1918 9.20227 12.1991 9.35583 12.2745 9.48183C12.3852 9.6667 12.5973 9.72336 12.7902 9.75445C13.4898 9.86672 13.8491 10.2536 13.921 10.9718C13.9544 11.3067 14.1799 11.5406 14.4695 11.5406H14.4695C14.4909 11.5406 14.5128 11.5394 14.5346 11.5367C14.8828 11.4953 15.0517 11.2394 15.0364 10.7763C15.042 10.2929 14.7891 9.74419 14.3588 9.30711C13.9271 8.86868 13.4067 8.62176 12.9333 8.63319Z" fill="#7F40BD"/>
</svg>
