<svg width="24" height="24" viewBox="0 0 24 24" fill="none" xmlns="http://www.w3.org/2000/svg">
<path d="M12 2C17.514 2 22 6.486 22 12C22 17.514 17.514 22 12 22C6.486 22 2 17.514 2 12C2 6.486 6.486 2 12 2ZM12 0C5.373 0 0 5.373 0 12C0 18.627 5.373 24 12 24C18.627 24 24 18.627 24 12C24 5.373 18.627 0 12 0ZM12.581 15.997C12.885 15.997 13.01 15.793 13.006 15.539C12.99 14.581 13.362 14.065 14.036 14.737C14.78 15.481 14.932 15.997 15.837 15.997H17.438C17.841 15.997 18 15.867 18 15.663C18 15.231 17.289 14.469 16.688 13.911C15.844 13.128 15.806 13.109 16.532 12.167C17.432 10.998 18.611 9.5 17.569 9.5H15.578C15.191 9.5 15.164 9.717 15.027 10.042C14.529 11.215 13.584 12.735 13.224 12.503C12.847 12.26 13.02 11.3 13.049 9.873C13.057 9.496 13.055 9.237 12.478 9.103C12.164 9.03 11.857 9 11.575 9C10.438 9 9.653 9.477 10.098 9.56C10.883 9.706 10.809 11.406 10.625 12.14C10.306 13.418 9.107 11.128 8.607 9.988C8.487 9.713 8.452 9.5 8.021 9.5H6.394C6.147 9.5 6 9.58 6 9.758C6 10.059 7.479 13.118 8.892 14.643C10.271 16.13 11.634 15.997 12.581 15.997Z" fill="#5082B9"/>
</svg>
